<?xml version="1.0" encoding="iso-8859-1"?>
<!-- Generator: Adobe Illustrator 19.0.0, SVG Export Plug-In . SVG Version: 6.00 Build 0)  -->
<svg version="1.1" id="Capa_1" xmlns="http://www.w3.org/2000/svg" xmlns:xlink="http://www.w3.org/1999/xlink" x="0px" y="0px"
	 viewBox="0 0 512 512" style="enable-background:new 0 0 512 512;" xml:space="preserve">
<g>
	<g>
		<path fill="red" d="M456,387h-40.5v-21.5c0-4.142-3.358-7.5-7.5-7.5h-9.154c41.312-39.087,64.654-92.881,64.654-150.5
			c0-26.147-4.802-51.64-14.271-75.772c-1.513-3.856-5.865-5.755-9.721-4.242c-3.856,1.513-5.755,5.865-4.242,9.721
			c8.782,22.379,13.234,46.029,13.234,70.293c0,59.022-26.4,113.72-72.5,150.5h-21.26c0.738-1.5,1.441-3.014,2.108-4.544
			C404.879,320.193,433.5,265.811,433.5,207.5C433.5,109.626,353.874,30,256,30S78.5,109.626,78.5,207.5
			c0,58.311,28.621,112.693,76.652,145.956c0.667,1.529,1.37,3.044,2.108,4.544H136c-46.1-36.78-72.5-91.478-72.5-150.5
			C63.5,101.355,149.855,15,256,15c67.722,0,131.246,36.246,165.781,94.594c2.11,3.565,6.711,4.744,10.274,2.634
			c3.564-2.11,4.744-6.709,2.634-10.274c-18.043-30.484-43.756-56.023-74.359-73.857C328.787,9.715,292.71,0,256,0
			C141.584,0,48.5,93.084,48.5,207.5c0,57.619,23.342,111.413,64.654,150.5H104c-4.142,0-7.5,3.358-7.5,7.5V387H56
			c-4.142,0-7.5,3.358-7.5,7.5v21.167c0,4.142,3.358,7.5,7.5,7.5c4.142,0,7.5-3.358,7.5-7.5V402h385v78.5
			c0,9.098-7.402,16.5-16.5,16.5H80c-9.098,0-16.5-7.402-16.5-16.5v-31c0-4.142-3.358-7.5-7.5-7.5c-4.142,0-7.5,3.358-7.5,7.5v31
			c0,17.369,14.131,31.5,31.5,31.5h352c17.369,0,31.5-14.131,31.5-31.5v-86C463.5,390.358,460.142,387,456,387z M146,309.5
			c0,6.404,0.562,12.744,1.644,18.967C113.412,297.816,93.5,254.024,93.5,207.5C93.5,117.897,166.397,45,256,45
			s162.5,72.897,162.5,162.5c0,46.524-19.912,90.316-54.144,120.967c1.082-6.223,1.644-12.563,1.644-18.967
			c0-42.79-25.026-81.581-63.216-99.554c8.758-12.574,10.716-23.76,10.716-31.232c0-21.028-14.276-37.5-32.5-37.5
			c-11.516,0-19.845,5.141-25,9.754c-5.154-4.612-13.484-9.754-25-9.754c-18.224,0-32.5,16.472-32.5,37.5
			c0,7.472,1.958,18.658,10.716,31.232C171.026,227.919,146,266.71,146,309.5z M320.933,253.16
			c-9.724-11.194-22.096-19.603-35.815-24.556c2.766-2.263,5.27-4.518,7.537-6.754C327.741,236.535,351,271.16,351,309.5
			c0,12.508-2.436,24.741-7.111,36.111c-0.037,0.086-0.071,0.173-0.104,0.261c-1.729,4.17-3.763,8.222-6.09,12.128h-10.692
			C336.752,343.824,342,327.082,342,309.5C342,288.808,334.519,268.799,320.933,253.16z M184.997,358h-10.692
			c-2.326-3.906-4.36-7.958-6.09-12.128c-0.033-0.088-0.068-0.175-0.104-0.261C163.436,334.241,161,322.008,161,309.5
			c0-38.34,23.259-72.965,58.345-87.65c2.267,2.236,4.771,4.491,7.537,6.754c-13.718,4.953-26.091,13.363-35.815,24.556
			C177.481,268.799,170,288.808,170,309.5C170,327.082,175.248,343.824,184.997,358z M213.5,178.714c0-10.907,6.133-22.5,17.5-22.5
			c10.579,0,16.759,7.375,18.405,9.642c1.526,2.106,3.992,3.363,6.595,3.363c2.603,0,5.068-1.257,6.592-3.359
			c1.643-2.263,7.823-9.646,18.408-9.646c11.367,0,17.5,11.593,17.5,22.5c0,17.605-15.433,36.223-42.5,51.451
			C228.933,214.937,213.5,196.319,213.5,178.714z M400.5,387h-289v-14h96.833c4.142,0,7.5-3.358,7.5-7.5c0-4.142-3.358-7.5-7.5-7.5
			h-4.115C191.809,344.792,185,327.69,185,309.5c0-33.945,24.629-63.448,57.716-69.739c3.046,1.867,6.292,3.727,9.76,5.573
			c1.102,0.586,2.313,0.879,3.524,0.879s2.422-0.293,3.524-0.879c3.469-1.846,6.714-3.706,9.76-5.573
			C302.371,246.052,327,275.555,327,309.5c0,18.19-6.809,35.292-19.218,48.5H240.25c-4.142,0-7.5,3.358-7.5,7.5
			c0,4.142,3.358,7.5,7.5,7.5H400.5V387z"/>
	</g>
</g>
<g>
</g>
<g>
</g>
<g>
</g>
<g>
</g>
<g>
</g>
<g>
</g>
<g>
</g>
<g>
</g>
<g>
</g>
<g>
</g>
<g>
</g>
<g>
</g>
<g>
</g>
<g>
</g>
<g>
</g>
</svg>
