<?xml version="1.0" encoding="iso-8859-1"?>
<!-- Generator: Adobe Illustrator 19.0.0, SVG Export Plug-In . SVG Version: 6.00 Build 0)  -->
<svg version="1.1" id="Capa_1" xmlns="http://www.w3.org/2000/svg" xmlns:xlink="http://www.w3.org/1999/xlink" x="0px" y="0px"
	 viewBox="0 0 512 512" style="enable-background:new 0 0 512 512;" xml:space="preserve">
<g>
	<g>
		<path fill="red" d="M447.792,223.5H421.5v-29.016c18.253-0.339,33-15.283,33-33.616V132c0-4.142-3.357-7.5-7.5-7.5h-66
			c-4.143,0-7.5,3.358-7.5,7.5v28.868c0,18.333,14.747,33.276,33,33.616V223.5h-78.545c0.344-1.447,0.545-2.949,0.545-4.5v-18
			c0-4.142-3.357-7.5-7.5-7.5h-37.5V107c0-4.142-3.357-7.5-7.5-7.5h-12.5v-1.837c12.821-2.996,21-13.822,21-28.802
			c0-15.449-15.512-30.983-22.18-36.944c-3.602-3.222-9.037-3.221-12.641,0C243.011,37.879,227.5,53.414,227.5,68.86
			c0,14.981,8.179,25.806,21,28.802v1.837H236c-4.142,0-7.5,3.358-7.5,7.5v86.5H191c-4.142,0-7.5,3.358-7.5,7.5v18
			c0,1.551,0.201,3.053,0.545,4.5H105.5v-29.016c18.253-0.339,33-15.283,33-33.616v-28.868c0-4.142-3.358-7.5-7.5-7.5H65
			c-4.142,0-7.5,3.358-7.5,7.5v28.868c0,18.333,14.747,33.276,33,33.616V223.5h-69C9.645,223.5,0,233.129,0,244.965V256
			c0,4.142,3.358,7.5,7.5,7.5s7.5-3.358,7.5-7.5v-11.035c0-3.565,2.916-6.465,6.5-6.465h426.292c4.143,0,7.5-3.358,7.5-7.5
			C455.292,226.858,451.935,223.5,447.792,223.5z M91.132,179.5c-10.274-0.001-18.632-8.359-18.632-18.632V139.5h51v21.368
			c0,10.273-8.358,18.632-18.632,18.632H91.132z M242.5,68.86c0-6.509,6.649-15.403,13.5-22.277
			c6.852,6.873,13.5,15.766,13.5,22.277c0,12.1-7.342,14.639-13.5,14.639C249.841,83.499,242.5,80.96,242.5,68.86z M243.5,114.499
			h25v79h-25V114.499z M313.5,218.999c0,2.481-2.019,4.5-4.5,4.5H203c-2.481,0.001-4.5-2.018-4.5-4.5v-10.5h115V218.999z
			 M407.132,179.5c-10.274-0.001-18.632-8.359-18.632-18.632V139.5h51v21.368c0,10.273-8.358,18.632-18.632,18.632H407.132z"/>
	</g>
</g>
<g>
	<g>
		<path d="M291,391.167c4.143,0,7.5-3.358,7.5-7.5v-5.82c2.413,0.431,4.815,0.654,7.2,0.654c12.255,0,24.903-5.706,37.598-16.96
			c6.539-5.801,17.596-5.81,24.139-0.027C380.16,372.785,392.832,378.5,405.1,378.5c12.27,0,24.941-5.715,37.658-16.981
			c6.548-5.789,17.606-5.78,24.146,0.023c12.692,11.252,25.341,16.958,37.596,16.958c4.143,0,7.5-3.358,7.5-7.5V244.965
			c0-11.836-9.645-21.465-21.5-21.465h-10.167c-4.143,0-7.5,3.358-7.5,7.5c0,4.142,3.357,7.5,7.5,7.5H490.5
			c3.584,0,6.5,2.9,6.5,6.465v81.428c-7.808-2.226-15.007-7.422-20.167-11.956c-12.123-10.651-31.856-10.665-43.987-0.028
			c-6.811,5.972-17.151,13.09-27.746,13.09c-10.593,0-20.936-7.119-27.746-13.09c-12.129-10.635-31.861-10.624-43.986,0.028
			c-6.782,5.959-17.088,13.062-27.667,13.062c-10.595,0-20.936-7.118-27.746-13.09c-12.131-10.636-31.863-10.624-43.987,0.028
			c-6.783,5.958-17.088,13.062-27.667,13.062s-20.885-7.103-27.667-13.062c-12.124-10.651-31.856-10.665-43.987-0.028
			c-6.81,5.972-17.152,13.09-27.746,13.09c-10.594,0-20.936-7.118-27.746-13.09c-12.13-10.636-31.863-10.625-43.987,0.028
			c-5.16,4.534-12.359,9.729-20.167,11.956V301v-13c0-4.142-3.358-7.5-7.5-7.5C3.359,280.5,0,283.858,0,288v83
			c0,4.142,3.358,7.5,7.5,7.5c12.254,0,24.904-5.706,37.598-16.96c6.539-5.801,17.596-5.812,24.139-0.027
			C81.959,372.785,94.631,378.5,106.9,378.5c12.27,0,24.941-5.715,37.657-16.981c6.549-5.789,17.606-5.78,24.147,0.023
			c12.691,11.252,25.34,16.958,37.595,16.958c2.386,0,4.787-0.223,7.2-0.654V437.5h-191C10.093,437.5,0,447.593,0,460
			c0,12.407,10.093,22.5,22.5,22.5h467c12.406,0,22.5-10.093,22.5-22.5c0-12.407-10.094-22.5-22.5-22.5h-191V416
			c0-4.142-3.357-7.5-7.5-7.5s-7.5,3.358-7.5,7.5v21.5h-55v-65.032c5.11-2.728,10.25-6.363,15.397-10.927
			c6.541-5.801,17.598-5.811,24.139-0.026c5.171,4.581,10.333,8.227,15.464,10.962v11.19C283.5,387.809,286.857,391.167,291,391.167
			z M489.5,452.5c4.136,0,7.5,3.364,7.5,7.5s-3.364,7.5-7.5,7.5h-467c-4.136,0-7.5-3.364-7.5-7.5s3.364-7.5,7.5-7.5H489.5z
			 M277.976,350.282c-12.149-10.741-31.903-10.724-44.033,0.038c-6.782,6.013-17.084,13.182-27.645,13.182
			c-10.56,0-20.861-7.168-27.643-13.18c-12.131-10.763-31.886-10.779-44.041-0.034c-6.804,6.028-17.136,13.214-27.716,13.214
			c-10.58,0-20.912-7.186-27.722-13.219c-12.15-10.741-31.904-10.723-44.033,0.038c-5.158,4.573-12.351,9.813-20.145,12.062v-20.589
			c9.877-1.822,19.958-7.203,30.067-16.085c6.558-5.76,17.639-5.769,24.197-0.018C81.987,336.843,94.649,342.5,106.9,342.5
			c12.251,0,24.913-5.656,37.635-16.812c6.561-5.75,17.642-5.742,24.198,0.018C181.416,336.85,194.056,342.5,206.3,342.5
			c12.244,0,24.884-5.65,37.568-16.793c6.557-5.762,17.637-5.771,24.197-0.019c12.722,11.155,25.385,16.812,37.636,16.812
			c12.245,0,24.885-5.65,37.567-16.793c6.557-5.76,17.639-5.769,24.197-0.018C380.188,336.843,392.85,342.5,405.1,342.5
			c12.251,0,24.914-5.656,37.635-16.811c6.561-5.751,17.642-5.743,24.198,0.018c10.109,8.882,20.191,14.262,30.067,16.085v20.589
			c-7.794-2.249-14.986-7.49-20.143-12.061c-12.131-10.762-31.885-10.78-44.041-0.034c-6.804,6.028-17.136,13.214-27.717,13.214
			c-10.58,0-20.912-7.186-27.722-13.219c-12.148-10.74-31.902-10.724-44.033,0.038c-6.783,6.013-17.085,13.182-27.645,13.182
			C295.119,363.501,284.787,356.315,277.976,350.282z"/>
	</g>
</g>
<g>
</g>
<g>
</g>
<g>
</g>
<g>
</g>
<g>
</g>
<g>
</g>
<g>
</g>
<g>
</g>
<g>
</g>
<g>
</g>
<g>
</g>
<g>
</g>
<g>
</g>
<g>
</g>
<g>
</g>
</svg>
