<?xml version="1.0" encoding="iso-8859-1"?>
<!-- Generator: Adobe Illustrator 19.0.0, SVG Export Plug-In . SVG Version: 6.00 Build 0)  -->
<svg version="1.1" id="Capa_1" xmlns="http://www.w3.org/2000/svg" xmlns:xlink="http://www.w3.org/1999/xlink" x="0px" y="0px"
	 viewBox="0 0 512 512" style="enable-background:new 0 0 512 512;" xml:space="preserve">
<g>
	<g>
		<path fill="red" d="M504.5,135.438c4.143,0,7.5-3.358,7.5-7.5V116c0-10.017-3.9-19.435-10.984-26.517c-0.372-0.372-0.775-0.696-1.198-0.974
			c-0.288-0.358-0.601-0.699-0.957-1.004c-6.776-5.807-15.428-9.005-24.36-9.005H96.333c-4.143,0-7.5,3.358-7.5,7.5
			c0,4.142,3.357,7.5,7.5,7.5H474.5c1.677,0,3.337,0.188,4.951,0.553L332.433,194.63c-9.043-11.412-21.622-17.698-35.433-17.698
			c-20.017,0-33.677,10.436-41,18.09c-7.324-7.655-20.983-18.09-41-18.09c-13.811,0-26.39,6.285-35.433,17.698L32.549,94.053
			c1.614-0.365,3.274-0.553,4.951-0.553h26.833c4.143,0,7.5-3.358,7.5-7.5c0-4.142-3.357-7.5-7.5-7.5H37.5
			c-8.933,0-17.584,3.198-24.36,9.005c-0.355,0.305-0.669,0.646-0.957,1.004c-0.424,0.278-0.826,0.601-1.198,0.974
			C3.9,96.565,0,105.983,0,116v235.667c0,4.142,3.357,7.5,7.5,7.5s7.5-3.358,7.5-7.5V116c0-4.711,1.457-9.19,4.125-12.957
			l152.774,104.515c-3.521,8.155-5.398,17.333-5.398,26.875c0,13.426,3.999,34.453,23.199,57.837L19.117,408.962
			C16.466,405.203,15,400.693,15,396v-12.333c0-4.142-3.357-7.5-7.5-7.5s-7.5,3.358-7.5,7.5V396
			c0,10.978,4.788,21.368,13.137,28.509c0.132,0.113,0.27,0.216,0.408,0.318c6.715,5.592,15.198,8.673,23.955,8.673h437
			c8.933,0,17.584-3.198,24.36-9.005c0.355-0.305,0.669-0.646,0.957-1.004c0.424-0.278,0.826-0.601,1.198-0.974
			C508.1,415.435,512,406.017,512,396V159c0-4.142-3.357-7.5-7.5-7.5s-7.5,3.358-7.5,7.5v237c0,4.711-1.457,9.19-4.125,12.957
			L322.301,292.27c19.2-23.384,23.199-44.411,23.199-57.837c0-9.542-1.877-18.721-5.398-26.875l152.774-104.515
			C495.543,106.81,497,111.289,497,116v11.938C497,132.08,500.357,135.438,504.5,135.438z M479.451,417.947
			c-1.614,0.365-3.274,0.553-4.951,0.553h-437c-1.677,0-3.337-0.188-4.951-0.553l167.374-114.498
			c12.493,12.359,29.481,25.124,52.509,37.58c1.113,0.602,2.341,0.903,3.568,0.903s2.455-0.301,3.568-0.903
			c23.028-12.456,40.016-25.221,52.509-37.58L479.451,417.947z M306.379,287.838c-0.547,0.44-1.04,0.964-1.46,1.569
			c-11.088,11.723-26.791,24.122-48.919,36.469c-22.128-12.347-37.831-24.746-48.919-36.469c-0.421-0.606-0.915-1.131-1.462-1.571
			C185.545,265.915,181.5,246.5,181.5,234.433c0-9.4,2.176-17.896,5.945-24.784c0.092-0.118,0.19-0.229,0.276-0.354
			c0.316-0.462,0.569-0.949,0.769-1.448c6.028-9.814,15.482-15.914,26.51-15.914c19.6,0,31.01,13.848,34.039,18.093
			c0.001,0,0.001,0.001,0.002,0.001c1.602,2.243,4.203,3.582,6.959,3.582s5.357-1.339,6.961-3.583
			c3.029-4.245,14.439-18.093,34.039-18.093c11.028,0,20.482,6.101,26.51,15.914c0.2,0.499,0.453,0.986,0.769,1.448
			c0.086,0.125,0.184,0.235,0.276,0.354c3.769,6.888,5.945,15.384,5.945,24.784C330.5,246.5,326.455,265.916,306.379,287.838z"/>
	</g>
</g>
<g>
</g>
<g>
</g>
<g>
</g>
<g>
</g>
<g>
</g>
<g>
</g>
<g>
</g>
<g>
</g>
<g>
</g>
<g>
</g>
<g>
</g>
<g>
</g>
<g>
</g>
<g>
</g>
<g>
</g>
</svg>
